<svg id="svg" xmlns="http://www.w3.org/2000/svg" xmlns:xlink="http://www.w3.org/1999/xlink" width="400" height="133.33333333333334" viewBox="0, 0, 400,133.33333333333334"><g id="svgg"><path id="path0" d="M0.000 66.667 L 0.000 133.333 200.000 133.333 L 400.000 133.333 400.000 66.667 L 400.000 0.000 200.000 0.000 L 0.000 0.000 0.000 66.667 M75.867 51.467 C 76.307 51.907,76.667 52.697,76.667 53.224 C 76.667 53.750,77.417 54.876,78.333 55.725 C 79.250 56.575,80.000 57.870,80.000 58.603 C 80.000 59.741,84.962 64.000,86.287 64.000 C 87.875 64.000,86.122 58.355,83.741 55.799 C 81.750 53.663,81.640 53.333,82.921 53.333 C 85.014 53.333,87.611 58.113,87.889 62.478 C 88.207 67.477,88.469 67.416,83.032 63.615 C 79.717 61.298,78.667 60.179,78.667 58.964 C 78.667 57.091,76.053 55.099,74.419 55.726 C 72.329 56.528,70.156 52.732,71.778 51.111 C 72.502 50.387,75.004 50.604,75.867 51.467 M72.782 53.106 C 73.063 54.565,75.000 54.771,75.000 53.342 C 75.000 52.797,74.448 52.245,73.773 52.115 C 72.882 51.944,72.610 52.215,72.782 53.106 M90.612 58.245 C 91.450 59.601,92.000 61.617,92.000 63.333 C 92.000 65.076,92.553 67.071,93.430 68.489 C 94.611 70.400,94.698 70.901,93.930 71.370 C 93.418 71.682,92.693 73.677,92.317 75.802 L 91.635 79.667 88.799 79.873 C 86.868 80.013,85.704 80.492,85.154 81.373 C 84.438 82.519,83.554 82.667,77.390 82.667 L 70.434 82.667 72.007 80.993 C 72.872 80.072,74.799 79.010,76.290 78.634 C 87.167 75.888,92.341 67.723,89.049 58.500 C 87.940 55.392,88.766 55.258,90.612 58.245 M124.833 58.644 C 125.407 58.670,125.530 70.667,124.956 70.667 C 122.937 70.667,122.000 69.074,122.000 65.643 L 122.000 62.000 116.333 62.000 L 110.667 62.000 110.667 67.667 L 110.667 73.333 114.310 73.333 C 117.230 73.333,118.090 73.589,118.643 74.623 C 119.748 76.687,119.635 76.726,113.167 76.525 L 107.000 76.333 106.813 68.234 C 106.567 57.531,106.062 57.800,124.833 58.644 M174.161 58.613 C 174.432 58.642,176.232 61.742,178.161 65.500 L 181.667 72.333 182.000 65.387 C 182.318 58.767,182.404 58.435,183.833 58.331 C 185.322 58.224,185.333 58.294,185.333 67.445 L 185.333 76.667 182.678 76.667 L 180.023 76.667 176.845 70.025 C 172.917 61.817,172.760 61.810,172.524 69.833 C 172.335 76.271,172.317 76.333,170.667 76.333 L 169.000 76.333 168.813 67.719 C 168.597 57.817,168.495 57.991,174.161 58.613 M207.500 59.819 C 209.369 61.508,208.885 62.000,205.356 62.000 L 202.045 62.000 201.856 69.167 C 201.676 75.991,201.596 76.343,200.190 76.543 C 198.753 76.748,198.708 76.559,198.523 69.543 L 198.333 62.333 194.833 62.132 C 191.267 61.926,189.391 59.153,192.410 58.549 C 195.566 57.917,206.405 58.829,207.500 59.819 M234.813 59.167 C 235.374 59.808,236.685 62.212,237.726 64.508 C 240.020 69.570,240.382 69.502,243.295 63.466 C 247.576 54.598,249.333 55.840,249.333 67.738 L 249.333 76.667 247.695 76.667 C 246.112 76.667,246.049 76.490,245.861 71.500 L 245.667 66.333 243.158 71.167 C 241.779 73.825,240.507 76.000,240.333 76.000 C 240.159 76.000,238.888 73.825,237.508 71.167 L 235.000 66.333 234.805 71.542 L 234.609 76.750 232.805 76.542 L 231.000 76.333 230.813 68.234 C 230.595 58.751,231.888 55.820,234.813 59.167 M318.500 58.637 C 318.958 58.653,319.333 59.417,319.333 60.333 C 319.333 61.981,319.268 62.000,313.640 62.000 L 307.946 62.000 308.140 67.500 L 308.333 73.000 313.833 73.194 C 319.179 73.382,319.333 73.433,319.333 75.027 L 319.333 76.667 312.000 76.667 L 304.667 76.667 304.667 68.033 C 304.667 57.342,303.540 58.108,318.500 58.637 M326.222 60.382 C 325.145 63.189,326.724 63.548,329.259 61.072 C 331.527 58.858,336.667 57.088,336.667 58.521 C 336.667 58.734,334.243 61.392,331.281 64.426 C 325.918 69.921,325.897 69.957,326.096 73.139 C 326.286 76.177,326.207 76.344,324.481 76.544 L 322.667 76.755 322.667 68.077 C 322.667 60.526,322.817 59.315,323.826 58.751 C 325.240 57.960,326.756 58.992,326.222 60.382 M132.144 65.833 L 132.333 73.000 136.000 73.000 L 139.667 73.000 140.000 66.000 C 140.316 59.365,140.412 58.989,141.833 58.787 C 143.326 58.575,143.333 58.619,143.333 67.643 L 143.333 76.712 136.167 76.523 L 129.000 76.333 128.811 68.372 C 128.599 59.433,128.742 58.667,130.623 58.667 C 131.860 58.667,131.968 59.177,132.144 65.833 M164.632 75.833 C 164.657 76.429,163.244 76.667,159.681 76.667 L 154.695 76.667 155.455 75.000 C 155.925 73.967,156.764 73.333,157.663 73.333 C 159.902 73.333,159.959 72.857,158.143 69.332 C 156.105 65.376,156.087 65.385,153.066 71.663 C 151.023 75.909,150.407 76.667,148.996 76.667 C 146.849 76.667,146.657 77.332,151.750 67.167 L 156.166 58.354 160.382 66.677 C 162.700 71.255,164.613 75.375,164.632 75.833 M216.144 65.833 L 216.333 73.000 220.000 73.000 L 223.667 73.000 224.000 66.000 C 224.316 59.365,224.412 58.989,225.833 58.787 C 227.321 58.576,227.333 58.645,227.333 66.954 C 227.333 71.562,227.335 75.558,227.336 75.833 C 227.337 76.108,224.037 76.418,220.003 76.522 L 212.667 76.710 212.667 68.133 C 212.667 59.198,212.784 58.667,214.755 58.667 C 215.824 58.667,215.976 59.447,216.144 65.833 M264.348 60.167 C 265.975 66.694,263.535 79.468,261.325 76.000 C 260.609 74.878,260.419 59.804,261.111 59.111 C 262.100 58.122,263.993 58.739,264.348 60.167 M279.000 67.667 C 279.000 75.889,278.932 76.333,277.667 76.333 C 276.556 76.333,276.278 75.778,276.000 73.000 L 275.667 69.667 271.167 69.470 C 268.692 69.361,266.667 69.043,266.667 68.764 C 266.667 67.092,268.599 66.040,272.000 65.860 L 275.667 65.667 275.870 62.125 C 276.054 58.909,276.207 58.603,277.536 58.792 C 278.958 58.994,279.000 59.250,279.000 67.667 M296.512 67.673 C 298.797 72.261,300.667 76.161,300.667 76.340 C 300.667 76.520,298.417 76.667,295.667 76.667 C 292.917 76.667,290.667 76.497,290.667 76.290 C 290.667 74.919,292.288 73.333,293.690 73.333 C 295.682 73.333,295.679 73.385,293.902 69.254 C 292.231 65.368,292.050 65.458,288.697 71.836 C 286.270 76.453,282.486 79.054,283.683 75.282 C 284.534 72.599,291.327 59.333,291.849 59.333 C 292.129 59.333,294.227 63.086,296.512 67.673 M78.617 63.826 C 79.140 65.013,80.040 66.144,80.617 66.340 C 82.058 66.828,86.402 70.491,85.996 70.875 C 85.815 71.047,83.931 70.051,81.809 68.662 C 79.383 67.074,77.465 66.265,76.639 66.481 C 74.069 67.153,72.276 63.991,74.159 62.108 C 75.540 60.726,77.602 61.521,78.617 63.826 M74.964 63.391 C 74.277 64.503,75.822 65.778,76.742 64.858 C 77.511 64.089,77.030 62.667,76.000 62.667 C 75.677 62.667,75.210 62.993,74.964 63.391 M66.872 66.003 C 67.566 67.841,70.906 68.392,72.578 66.944 C 73.022 66.560,82.667 73.358,82.667 74.054 C 82.667 76.294,74.037 77.410,70.572 75.618 C 67.816 74.193,68.525 73.789,72.103 74.746 C 75.371 75.620,80.005 75.066,79.991 73.803 C 79.973 72.159,72.596 68.060,70.849 68.724 C 67.330 70.062,62.732 69.491,62.272 67.658 C 61.358 64.020,65.553 62.510,66.872 66.003 M63.792 65.764 C 62.876 66.680,63.351 68.094,64.500 67.873 C 65.142 67.750,65.667 67.228,65.667 66.713 C 65.667 65.661,64.490 65.065,63.792 65.764 M335.700 73.333 C 337.007 73.333,337.333 73.673,337.333 75.037 C 337.333 76.652,337.171 76.729,334.167 76.537 L 331.000 76.333 330.796 72.750 C 330.625 69.759,330.845 68.895,332.129 67.524 L 333.667 65.881 333.867 69.607 C 334.052 73.063,334.185 73.333,335.700 73.333 M124.500 72.818 C 124.958 73.191,125.333 74.230,125.333 75.126 C 125.333 78.870,118.767 74.340,118.678 70.534 C 118.665 70.000,123.247 71.797,124.500 72.818 " stroke="none" fill="#000000" fill-rule="evenodd"></path></g></svg>